<svg viewBox="0 0 88 88" fill="none" xmlns="http://www.w3.org/2000/svg">
<circle opacity="0.1" cx="44" cy="44" r="44" fill="#8FA632"/>
<path d="M25.9434 32.7469C25.5208 32.0115 25.8862 31.1271 26.7598 30.7714C27.0449 30.6553 27.3485 30.6111 27.6434 30.6281C27.9215 30.1076 28.4098 29.6633 29.0677 29.3954C30.5549 28.7897 32.3439 29.3136 33.0635 30.5655C33.2374 30.8681 33.3323 31.1856 33.356 31.5015C34.0199 31.4829 34.666 31.7873 34.974 32.323C35.3906 33.0479 35.0303 33.9197 34.1692 34.2704C33.3872 34.5889 32.4627 34.3667 31.9872 33.7805C31.8873 33.8344 31.783 33.8844 31.6735 33.9291C30.4977 34.4079 29.1338 34.1803 28.2583 33.4454C27.3913 33.7812 26.361 33.4733 25.9434 32.7469Z" fill="url(#paint0_linear_13611_6803)"/>
<path d="M26.3844 30.0537C27.1953 30.0537 27.8527 29.5003 27.8527 28.8176C27.8527 28.1349 27.1953 27.5815 26.3844 27.5815C25.5734 27.5815 24.916 28.1349 24.916 28.8176C24.916 29.5003 25.5734 30.0537 26.3844 30.0537Z" fill="url(#paint1_linear_13611_6803)"/>
<path d="M35.1071 40.0219H31.5656C31.0645 40.0219 30.6582 39.6799 30.6582 39.2581V34.5029C30.6582 34.081 31.0645 33.739 31.5656 33.739H35.1071C35.6083 33.739 36.0145 34.081 36.0145 34.5029V39.2581C36.0146 39.6799 35.6084 40.0219 35.1071 40.0219Z" fill="url(#paint2_linear_13611_6803)"/>
<path d="M33.9856 53.5804H23.4102V65.0052H33.9856V53.5804Z" fill="url(#paint3_linear_13611_6803)"/>
<path d="M34.4255 56.0284H23.4332C22.9828 56.0284 22.6603 55.6623 22.7911 55.2994L23.8819 52.2748C23.9677 52.0367 24.2284 51.874 24.524 51.874H34.4256V56.0284H34.4255Z" fill="url(#paint4_linear_13611_6803)"/>
<path d="M65.5364 53.5804H54.9609V65.0052H65.5364V53.5804Z" fill="url(#paint5_linear_13611_6803)"/>
<path d="M65.5363 62.012L58.431 56.0306H54.9609V65.005H65.5363V62.012Z" fill="url(#paint6_linear_13611_6803)"/>
<path d="M54.5195 56.0284H65.5119C65.9623 56.0284 66.2847 55.6623 66.154 55.2994L65.0632 52.2748C64.9774 52.0367 64.7166 51.874 64.4211 51.874H54.5195V56.0284Z" fill="url(#paint7_linear_13611_6803)"/>
<path d="M58.4362 41.3675V65.0047H30.5137V41.3675L44.4732 29.8463L58.4362 41.3675Z" fill="url(#paint8_linear_13611_6803)"/>
<path d="M30.5137 41.3675V42.7217L56.9844 65.0047H58.4362V41.3675L44.4732 29.8463L30.5137 41.3675Z" fill="url(#paint9_linear_13611_6803)"/>
<path d="M58.4362 48.5112V65.005H49.6208L30.5137 48.9206V48.5112H58.4362Z" fill="url(#paint10_linear_13611_6803)"/>
<path d="M54.1215 65.005H40.4654L32.9586 58.6858C32.6281 58.5054 32.4082 58.1925 32.4082 57.8375V52.7516C32.4082 52.1944 32.9471 51.7407 33.609 51.7407H37.9648C38.3874 51.7407 38.7592 51.9259 38.9735 52.2041L38.9408 52.2259L54.1215 65.005Z" fill="url(#paint11_linear_13611_6803)"/>
<path d="M37.964 58.2557H33.6086C33.3339 58.2557 33.1113 58.0683 33.1113 57.8371V52.7519C33.1113 52.5207 33.334 52.3333 33.6086 52.3333H37.964C38.2387 52.3333 38.4613 52.5207 38.4613 52.7519V57.8371C38.4614 58.0683 38.2387 58.2557 37.964 58.2557Z" fill="#503837"/>
<path d="M37.9649 58.8483H33.6094C32.9471 58.8483 32.4082 58.3947 32.4082 57.8371V52.7519C32.4082 52.1944 32.9471 51.7407 33.6094 51.7407H37.9649C38.6272 51.7407 39.1661 52.1944 39.1661 52.7519V57.8371C39.1662 58.3947 38.6273 58.8483 37.9649 58.8483ZM33.8162 57.6631H37.7582V52.9258H33.8162V57.6631Z" fill="white"/>
<path d="M58.4359 53.8385V65.005H58.0075L50.5007 58.6858C50.1692 58.5054 49.9492 58.1925 49.9492 57.8375V52.7516C49.9492 52.1944 50.4881 51.7407 51.151 51.7407H55.5058C55.9285 51.7407 56.3002 51.9259 56.5145 52.2041L56.5318 52.2154L56.5202 52.226L58.4359 53.8385Z" fill="url(#paint12_linear_13611_6803)"/>
<path d="M55.507 58.2557H51.1516C50.8769 58.2557 50.6543 58.0683 50.6543 57.8371V52.7519C50.6543 52.5207 50.8769 52.3333 51.1516 52.3333H55.507C55.7817 52.3333 56.0043 52.5207 56.0043 52.7519V57.8371C56.0044 58.0683 55.7817 58.2557 55.507 58.2557Z" fill="#503837"/>
<path d="M55.5078 58.8483H51.1524C50.4901 58.8483 49.9512 58.3947 49.9512 57.8371V52.7519C49.9512 52.1944 50.4901 51.7407 51.1524 51.7407H55.5078C56.1702 51.7407 56.7091 52.1944 56.7091 52.7519V57.8371C56.7091 58.3947 56.1702 58.8483 55.5078 58.8483ZM51.359 57.6631H55.301V52.9258H51.359V57.6631Z" fill="white"/>
<path d="M41.5645 65.0047V52.1637C41.5645 51.5973 42.1099 51.1382 42.7827 51.1382H46.1656C46.8384 51.1382 47.3838 51.5973 47.3838 52.1637V65.0047H41.5645Z" fill="#816965"/>
<path d="M48.1041 65.0047H46.6631V52.5134C46.6631 52.0907 46.2522 51.7448 45.75 51.7448H43.1978C42.6935 51.7448 42.2847 52.0889 42.2847 52.5134V65.0047H40.8438V51.7112C40.8438 51.0598 41.4711 50.5317 42.2449 50.5317H46.7029C47.4767 50.5317 48.104 51.0598 48.104 51.7112V65.0047H48.1041V65.0047Z" fill="#503837"/>
<path d="M43.4421 56.5096C43.805 56.5096 44.0991 56.2624 44.0991 55.9573C44.0991 55.6523 43.805 55.405 43.4421 55.405C43.0793 55.405 42.7852 55.6523 42.7852 55.9573C42.7852 56.2624 43.0793 56.5096 43.4421 56.5096Z" fill="white"/>
<path d="M58.4361 61.7684H30.5117V65.0045H58.4361V61.7684Z" fill="#654E48"/>
<path d="M30.2066 63.7402C30.2066 64.1868 30.1063 64.613 29.923 65.0047H22.2836C22.1003 64.613 22 64.1868 22 63.7402C22 63.3053 22.0952 62.8895 22.2697 62.5065C22.8595 61.2075 24.3536 60.286 26.1034 60.286C27.8532 60.286 29.3472 61.2076 29.9371 62.5065C30.1114 62.8896 30.2066 63.3054 30.2066 63.7402Z" fill="url(#paint13_linear_13611_6803)"/>
<path d="M32.8535 64.0875C32.8535 64.4114 32.7807 64.7205 32.6478 65.0048H27.1061C26.9732 64.7206 26.9004 64.4114 26.9004 64.0875C26.9004 63.772 26.9695 63.4704 27.0961 63.1926C27.5239 62.2503 28.6077 61.5818 29.8771 61.5818C31.1464 61.5818 32.2302 62.2503 32.6581 63.1926C32.7844 63.4704 32.8535 63.772 32.8535 64.0875Z" fill="url(#paint14_linear_13611_6803)"/>
<path d="M66.9453 63.5305C66.9453 64.0511 66.8283 64.5479 66.6147 65.0045H57.7095C57.496 64.548 57.3789 64.0511 57.3789 63.5305C57.3789 63.0236 57.49 62.539 57.6933 62.0925C58.3809 60.5783 60.1224 59.504 62.1621 59.504C64.2018 59.504 65.9433 60.5783 66.6309 62.0925C66.8342 62.539 66.9453 63.0236 66.9453 63.5305Z" fill="url(#paint15_linear_13611_6803)"/>
<path d="M58.4358 44.7489V57.2767L40.4743 42.1561C40.1218 41.9773 39.8848 41.6531 39.8848 41.2822V38.4416C39.8848 36.3124 41.9435 34.5802 44.4727 34.5802C45.8422 34.5802 47.0734 35.0891 47.915 35.8925L58.4358 44.7489Z" fill="url(#paint16_linear_13611_6803)"/>
<path d="M56.3889 43.53H32.9173C32.3576 43.53 31.9023 43.9133 31.9023 44.3844V48.1778H32.6073V44.3844C32.6073 44.2405 32.7464 44.1235 32.9173 44.1235H34.3213V48.1777H35.0263V44.1235H37.1208V48.1777H37.8258V44.1235H39.9202V48.1777H40.6252V44.1235H42.7196V48.1777H43.4246V44.1235H45.5192V48.1777H46.2242V44.1235H48.3186V48.1777H49.0236V44.1235H51.118V48.1777H51.823V44.1235H53.9175V48.1777H54.6225V44.1235H56.3885C56.5594 44.1235 56.6985 44.2405 56.6985 44.3844V48.1778H57.4035V44.3844C57.4038 43.9133 56.9485 43.53 56.3889 43.53Z" fill="#654E48"/>
<path d="M59.0152 47.562V49.4648C59.0152 49.7476 58.7429 49.9768 58.407 49.9768H30.5399C30.2039 49.9768 29.9316 49.7476 29.9316 49.4648V47.562C29.9316 47.2792 30.2039 47.0499 30.5399 47.0499H58.407C58.7429 47.0499 59.0152 47.2792 59.0152 47.562Z" fill="url(#paint17_linear_13611_6803)"/>
<path d="M63.4345 43.4283L45.405 28.2461C44.8911 27.8135 44.0579 27.8135 43.544 28.2461L25.51 43.427C25.1738 43.71 25.1738 44.1689 25.51 44.4519L26.2785 45.0989C26.6147 45.3819 27.1598 45.3819 27.496 45.0989L44.2294 31.0127C44.3647 30.8988 44.5841 30.8988 44.7194 31.0127L61.4484 45.1C61.7846 45.3831 62.3297 45.3831 62.6659 45.1L63.4344 44.4531C63.7707 44.1701 63.7707 43.7113 63.4345 43.4283Z" fill="url(#paint18_linear_13611_6803)"/>
<path d="M45.4051 28.246C45.1482 28.0297 44.8114 27.9216 44.4746 27.9216V30.9274C44.5633 30.9274 44.6519 30.9559 44.7196 31.0128L61.4486 45.1002C61.7848 45.3832 62.3298 45.3832 62.666 45.1002L63.4346 44.4532C63.7708 44.1702 63.7708 43.7113 63.4346 43.4283L45.4051 28.246Z" fill="url(#paint19_linear_13611_6803)"/>
<path d="M47.8464 41.6873H41.0989C40.8328 41.6873 40.6172 41.5058 40.6172 41.2818V38.4418C40.6172 36.6493 42.3434 35.1962 44.4728 35.1962C46.6021 35.1962 48.3283 36.6493 48.3283 38.4418V41.2818C48.3282 41.5058 48.1124 41.6873 47.8464 41.6873Z" fill="#654E48"/>
<path d="M44.4723 34.5801C41.9427 34.5801 39.8848 36.3125 39.8848 38.4418V41.2818C39.8848 41.8453 40.4292 42.3036 41.0986 42.3036H47.8461C48.5154 42.3036 49.0599 41.8453 49.0599 41.2818V38.4418C49.0598 36.3124 47.002 34.5801 44.4723 34.5801ZM47.5704 38.1132H45.2044V35.8862C46.4511 36.1394 47.4082 37.0235 47.5704 38.1132ZM43.7402 35.8862V38.1132H41.3741C41.5363 37.0235 42.4934 36.1394 43.7402 35.8862ZM41.3488 39.3457H43.7402V41.0712H41.3488V39.3457V39.3457ZM45.2044 41.0712V39.3457H47.5957V41.0712H45.2044Z" fill="white"/>
<defs>
<linearGradient id="paint0_linear_13611_6803" x1="24.2453" y1="29.9556" x2="40.8017" y2="36.7981" gradientUnits="userSpaceOnUse">
<stop stop-color="#E2EDF2"/>
<stop offset="1" stop-color="#9FC7E2"/>
</linearGradient>
<linearGradient id="paint1_linear_13611_6803" x1="25.9081" y1="28.6789" x2="28.3458" y2="29.6867" gradientUnits="userSpaceOnUse">
<stop stop-color="#E2EDF2"/>
<stop offset="1" stop-color="#9FC7E2"/>
</linearGradient>
<linearGradient id="paint2_linear_13611_6803" x1="31.9015" y1="35.674" x2="33.3753" y2="37.4239" gradientUnits="userSpaceOnUse">
<stop stop-color="#816965"/>
<stop offset="1" stop-color="#654E48"/>
</linearGradient>
<linearGradient id="paint3_linear_13611_6803" x1="28.6977" y1="55.0281" x2="28.6977" y2="65.1736" gradientUnits="userSpaceOnUse">
<stop stop-color="#FFE7A5"/>
<stop offset="0.966" stop-color="#FFBF5C"/>
</linearGradient>
<linearGradient id="paint4_linear_13611_6803" x1="28.5935" y1="52.4004" x2="28.5935" y2="56.0904" gradientUnits="userSpaceOnUse">
<stop stop-color="#FF5D00"/>
<stop offset="1" stop-color="#D54003"/>
</linearGradient>
<linearGradient id="paint5_linear_13611_6803" x1="60.2478" y1="55.0281" x2="60.2478" y2="65.1736" gradientUnits="userSpaceOnUse">
<stop stop-color="#FFE7A5"/>
<stop offset="0.966" stop-color="#FFBF5C"/>
</linearGradient>
<linearGradient id="paint6_linear_13611_6803" x1="60.001" y1="62.9978" x2="50.7269" y2="53.18" gradientUnits="userSpaceOnUse">
<stop stop-color="#FF5D00" stop-opacity="0"/>
<stop offset="1" stop-color="#D54003"/>
</linearGradient>
<linearGradient id="paint7_linear_13611_6803" x1="60.3506" y1="52.4004" x2="60.3506" y2="56.0904" gradientUnits="userSpaceOnUse">
<stop stop-color="#FF5D00"/>
<stop offset="1" stop-color="#D54003"/>
</linearGradient>
<linearGradient id="paint8_linear_13611_6803" x1="44.4745" y1="47.6696" x2="44.4745" y2="72.5578" gradientUnits="userSpaceOnUse">
<stop stop-color="#FFE7A5"/>
<stop offset="0.966" stop-color="#FFBF5C"/>
<stop offset="1" stop-color="#DB9E36"/>
</linearGradient>
<linearGradient id="paint9_linear_13611_6803" x1="41.4569" y1="39.5049" x2="34.7524" y2="31.5403" gradientUnits="userSpaceOnUse">
<stop stop-color="#FF5D00" stop-opacity="0"/>
<stop offset="1" stop-color="#D54003"/>
</linearGradient>
<linearGradient id="paint10_linear_13611_6803" x1="45.5256" y1="54.2084" x2="43.2677" y2="37.5595" gradientUnits="userSpaceOnUse">
<stop stop-color="#FF5D00" stop-opacity="0"/>
<stop offset="1" stop-color="#D54003"/>
</linearGradient>
<linearGradient id="paint11_linear_13611_6803" x1="41.2267" y1="59.8739" x2="30.778" y2="47.4616" gradientUnits="userSpaceOnUse">
<stop stop-color="#FF5D00" stop-opacity="0"/>
<stop offset="1" stop-color="#D54003"/>
</linearGradient>
<linearGradient id="paint12_linear_13611_6803" x1="56.6983" y1="58.1319" x2="50.0084" y2="50.1847" gradientUnits="userSpaceOnUse">
<stop stop-color="#FF5D00" stop-opacity="0"/>
<stop offset="1" stop-color="#D54003"/>
</linearGradient>
<linearGradient id="paint13_linear_13611_6803" x1="23.7892" y1="61.5899" x2="27.9892" y2="66.5787" gradientUnits="userSpaceOnUse">
<stop stop-color="#9EB644"/>
<stop offset="1" stop-color="#738611"/>
</linearGradient>
<linearGradient id="paint14_linear_13611_6803" x1="28.1981" y1="62.5273" x2="31.2448" y2="66.1467" gradientUnits="userSpaceOnUse">
<stop stop-color="#9EB644"/>
<stop offset="1" stop-color="#738611"/>
</linearGradient>
<linearGradient id="paint15_linear_13611_6803" x1="59.464" y1="61.0237" x2="64.3593" y2="66.8398" gradientUnits="userSpaceOnUse">
<stop stop-color="#9EB644"/>
<stop offset="1" stop-color="#738611"/>
</linearGradient>
<linearGradient id="paint16_linear_13611_6803" x1="50.8878" y1="44.6756" x2="40.1767" y2="31.9516" gradientUnits="userSpaceOnUse">
<stop stop-color="#FF5D00" stop-opacity="0"/>
<stop offset="1" stop-color="#D54003"/>
</linearGradient>
<linearGradient id="paint17_linear_13611_6803" x1="44.473" y1="47.3617" x2="44.473" y2="51.2446" gradientUnits="userSpaceOnUse">
<stop stop-color="#FF5D00"/>
<stop offset="1" stop-color="#D54003"/>
</linearGradient>
<linearGradient id="paint18_linear_13611_6803" x1="44.4718" y1="38.1911" x2="44.4718" y2="51.373" gradientUnits="userSpaceOnUse">
<stop stop-color="#FF5D00"/>
<stop offset="1" stop-color="#D54003"/>
</linearGradient>
<linearGradient id="paint19_linear_13611_6803" x1="57.9404" y1="40.5315" x2="50.0896" y2="31.2055" gradientUnits="userSpaceOnUse">
<stop stop-color="#FF5D00" stop-opacity="0"/>
<stop offset="1" stop-color="#D54003"/>
</linearGradient>
</defs>
</svg>
