<svg viewBox="0 0 88 88" fill="none" xmlns="http://www.w3.org/2000/svg">
<circle opacity="0.1" cx="44" cy="44" r="44" fill="#DC780B"/>
<path d="M44.2832 20.5583V72.8295C58.5126 72.678 70.0007 61.0344 70.0007 46.6939C70.0007 32.3534 58.5126 20.7098 44.2832 20.5583V20.5583Z" fill="#FFBB54"/>
<path d="M44.2825 20.5585C44.1883 20.5574 44.0942 20.5564 44 20.5564C29.6409 20.5564 18 32.2589 18 46.6941C18 61.1292 29.6409 72.8317 44 72.8317C44.0942 72.8317 44.1883 72.8307 44.2825 72.8296C56.1996 72.6487 65.8149 61.0166 65.8149 46.6941C65.8149 32.3715 56.1996 20.7394 44.2825 20.5585V20.5585Z" fill="#FFD45A"/>
<path d="M54.3058 43.5597L44.1328 56.6285H54.5841C56.3764 54.3324 57.4446 51.4378 57.4446 48.2929V46.7151C57.4446 44.9796 56.0321 43.5597 54.3058 43.5597V43.5597Z" fill="#B74147"/>
<path d="M33.6935 43.5597C31.9672 43.5597 30.5547 44.9796 30.5547 46.7151V48.2929C30.5547 51.4378 31.6229 54.3324 33.4152 56.6285L52.9858 54.912C53.826 52.9556 54.3052 50.6973 54.3052 48.2929V46.7155L33.6935 43.5597Z" fill="#FF3C1F"/>
<path d="M52.9864 54.9119L44.1328 61.8076C48.3755 61.7666 52.1473 59.7502 54.5841 56.6284C54.1017 56.011 53.5671 55.4357 52.9864 54.9119Z" fill="#FA4087"/>
<path d="M52.9866 54.9119C51.2414 58.9814 47.9352 61.7445 44.133 61.8076C44.0891 61.8086 44.0441 61.8086 44.0002 61.8086C39.7031 61.8086 35.8779 59.7828 33.416 56.6284C35.8779 53.4751 39.7031 51.4482 44.0002 51.4482C47.455 51.4482 50.6053 52.7588 52.9866 54.9119Z" fill="#FA71A3"/>
<path d="M51.1671 43.5597L49.5977 48.2929H52.7365C53.5997 48.2929 54.3059 47.5829 54.3059 46.7151V43.5597H51.1671Z" fill="#FFF7DF"/>
<path d="M51.1662 43.5597V46.7151C51.1662 47.5829 50.46 48.2929 49.5968 48.2929H35.2628C34.3996 48.2929 33.6934 47.5829 33.6934 46.7151V43.5597H51.1662Z" fill="white"/>
<path d="M44.7838 65.7516H43.2144C42.7809 65.7516 42.4297 65.3988 42.4297 64.9636C42.4297 64.5285 42.7809 64.1757 43.2144 64.1757H44.7838C45.2173 64.1757 45.5685 64.5285 45.5685 64.9636C45.5685 65.3988 45.2173 65.7516 44.7838 65.7516Z" fill="#FFBB54"/>
<path d="M52.7354 32.5156C51.8723 32.5156 51.166 33.2256 51.166 34.0934V38.8265C51.166 39.6943 51.8723 40.4043 52.7354 40.4043C53.5986 40.4043 54.3048 39.6943 54.3048 38.8265V34.0934C54.3048 33.2256 53.5986 32.5156 52.7354 32.5156V32.5156Z" fill="#474867"/>
<path d="M35.2628 32.517C34.3996 32.517 33.6934 33.2269 33.6934 34.0947V38.8279C33.6934 39.6956 34.3996 40.4056 35.2628 40.4056C36.126 40.4056 36.8322 39.6956 36.8322 38.8279V34.0947C36.8322 33.2269 36.126 32.517 35.2628 32.517Z" fill="#474867"/>
</svg>
