<svg viewBox="0 0 141 46" fill="none" xmlns="http://www.w3.org/2000/svg">
<path d="M9.282 31.578C8.01267 31.578 6.78867 31.408 5.61 31.068C4.43133 30.7507 3.468 30.286 2.72 29.674C1.972 29.0393 1.598 28.314 1.598 27.498V23.52H2.55C2.89 25.832 3.604 27.498 4.692 28.518C5.78 29.538 7.29867 30.048 9.248 30.048C10.5627 30.048 11.6053 29.7647 12.376 29.198C13.1467 28.6313 13.532 27.8153 13.532 26.75C13.532 25.8433 13.2487 25.0727 12.682 24.438C12.1153 23.8033 11.2313 23.112 10.03 22.364L5.848 19.848C4.32933 18.964 3.24133 18.046 2.584 17.094C1.94933 16.142 1.632 15.0313 1.632 13.762C1.632 11.9713 2.312 10.5547 3.672 9.512C5.05467 8.46933 6.91333 7.948 9.248 7.948C10.5173 7.948 11.7413 8.118 12.92 8.458C14.0987 8.77533 15.062 9.25133 15.81 9.886C16.558 10.498 16.932 11.212 16.932 12.028V16.006H15.98C15.5947 13.694 14.8807 12.028 13.838 11.008C12.7953 9.988 11.39 9.478 9.622 9.478C8.398 9.478 7.42333 9.77267 6.698 10.362C5.99533 10.9513 5.644 11.756 5.644 12.776C5.644 13.66 5.916 14.3967 6.46 14.986C7.02667 15.5527 7.93333 16.1987 9.18 16.924L13.362 19.406C14.9487 20.3353 16.082 21.242 16.762 22.126C17.4647 22.9873 17.816 24.03 17.816 25.254C17.816 27.226 17.068 28.7787 15.572 29.912C14.0987 31.0227 12.002 31.578 9.282 31.578ZM27.7286 31.34C25.5753 31.34 23.9886 30.8413 22.9686 29.844C21.9486 28.8467 21.4386 27.26 21.4386 25.084V19.44C21.4386 18.284 21.2799 17.434 20.9626 16.89C20.6453 16.3233 20.0106 16.04 19.0586 16.04H18.7186V15.02H22.7986C23.6146 15.02 24.2379 15.156 24.6686 15.428C25.0993 15.7 25.4053 16.1533 25.5866 16.788C25.7679 17.4 25.8586 18.284 25.8586 19.44V25.118C25.8586 26.818 26.0966 28.0307 26.5726 28.756C27.0486 29.4587 27.7739 29.81 28.7486 29.81C29.5873 29.81 30.3466 29.4473 31.0266 28.722C31.2759 28.4727 31.5366 28.0987 31.8086 27.6V15.02H36.2286V31H33.3386L32.1486 29.47H31.9786C31.6613 29.81 31.2873 30.1273 30.8566 30.422C29.9953 31.034 28.9526 31.34 27.7286 31.34ZM46.0692 31.34C43.4172 31.34 41.5925 30.8753 40.5952 29.946C40.2325 29.606 40.0059 29.13 39.9152 28.518C39.8245 27.8833 39.7792 27.0107 39.7792 25.9H40.9692C41.1732 27.0787 41.6379 28.0307 42.3632 28.756C43.0885 29.4587 44.0972 29.81 45.3892 29.81C47.6559 29.81 48.7892 29.0393 48.7892 27.498C48.7892 26.9087 48.5399 26.4213 48.0412 26.036C47.5652 25.6507 46.7945 25.22 45.7292 24.744L43.9612 23.996C42.5105 23.3613 41.4225 22.67 40.6972 21.922C39.9719 21.174 39.6092 20.2673 39.6092 19.202C39.6092 17.774 40.1985 16.6633 41.3772 15.87C42.5785 15.0767 44.1425 14.68 46.0692 14.68C48.7212 14.68 50.5459 15.1447 51.5432 16.074C51.9059 16.414 52.1325 16.89 52.2232 17.502C52.3139 18.114 52.3592 18.9867 52.3592 20.12H51.1692C50.9652 18.9413 50.5005 18.0007 49.7752 17.298C49.0499 16.5727 48.0412 16.21 46.7492 16.21C45.7745 16.21 45.0492 16.4253 44.5732 16.856C44.0972 17.264 43.8592 17.8193 43.8592 18.522C43.8592 19.0887 44.0519 19.5647 44.4372 19.95C44.8452 20.3127 45.4572 20.6753 46.2732 21.038L48.3132 21.888C49.9905 22.5907 51.1919 23.3047 51.9172 24.03C52.6652 24.7327 53.0392 25.662 53.0392 26.818C53.0392 28.2687 52.3932 29.3907 51.1012 30.184C49.8319 30.9547 48.1545 31.34 46.0692 31.34ZM56.2275 12.98C56.2275 11.824 56.0688 10.974 55.7515 10.43C55.4342 9.86333 54.7995 9.58 53.8475 9.58H53.5075V8.56H57.5875C58.4035 8.56 59.0268 8.696 59.4575 8.968C59.8882 9.24 60.1942 9.69333 60.3755 10.328C60.5568 10.94 60.6475 11.824 60.6475 12.98V15.972C60.8515 15.8133 61.2028 15.598 61.7015 15.326C62.6082 14.8953 63.5035 14.68 64.3875 14.68C66.2235 14.68 67.7535 15.156 68.9775 16.108C70.2242 17.0373 70.8475 18.6353 70.8475 20.902V31H66.4275V21.072C66.4275 19.44 66.1328 18.25 65.5435 17.502C64.9768 16.754 64.2515 16.38 63.3675 16.38C62.7555 16.38 62.1095 16.584 61.4295 16.992C61.1575 17.1507 60.8968 17.3433 60.6475 17.57V31H56.2275V12.98ZM77.5776 13.184C76.7616 13.184 76.127 12.9347 75.6736 12.436C75.243 11.9373 75.0276 11.3253 75.0276 10.6C75.0276 10.0107 75.1976 9.546 75.5376 9.206C75.9003 8.866 76.3536 8.696 76.8976 8.696C77.7136 8.696 78.337 8.94533 78.7676 9.444C79.221 9.94267 79.4476 10.5547 79.4476 11.28C79.4476 11.8693 79.2663 12.334 78.9036 12.674C78.5636 13.014 78.1216 13.184 77.5776 13.184ZM75.3676 19.44C75.3676 18.284 75.209 17.434 74.8916 16.89C74.5743 16.3233 73.9396 16.04 72.9876 16.04H72.6476V15.02H76.7276C77.5436 15.02 78.167 15.156 78.5976 15.428C79.0283 15.7 79.3343 16.1533 79.5156 16.788C79.697 17.4 79.7876 18.284 79.7876 19.44V31H75.3676V19.44ZM84.7769 12.98C84.7769 11.824 84.6182 10.974 84.3009 10.43C83.9835 9.86333 83.3489 9.58 82.3969 9.58H82.0569V8.56H91.3049C95.8835 8.56 99.3629 9.53467 101.743 11.484C104.146 13.4107 105.347 16.1307 105.347 19.644C105.347 21.888 104.837 23.8713 103.817 25.594C102.82 27.294 101.324 28.62 99.3289 29.572C97.3569 30.524 94.9769 31 92.1889 31H84.7769V12.98ZM92.0869 29.64C93.6735 29.64 95.0789 29.2433 96.3029 28.45C97.5495 27.6567 98.5129 26.512 99.1929 25.016C99.8955 23.52 100.247 21.7747 100.247 19.78C100.247 17.808 99.8955 16.0853 99.1929 14.612C98.5129 13.116 97.5495 11.96 96.3029 11.144C95.0562 10.328 93.6282 9.92 92.0189 9.92H91.7469C90.9989 9.92 90.3982 9.96533 89.9449 10.056L89.1969 10.158V29.402L89.9449 29.538C90.4209 29.606 91.0215 29.64 91.7469 29.64H92.0869ZM115.66 31.34C114.096 31.34 112.725 30.9773 111.546 30.252C110.367 29.5267 109.449 28.5407 108.792 27.294C108.157 26.0247 107.84 24.5967 107.84 23.01C107.84 21.242 108.157 19.7347 108.792 18.488C109.449 17.2413 110.345 16.3007 111.478 15.666C112.611 15.0087 113.892 14.68 115.32 14.68C116.725 14.68 117.995 14.9633 119.128 15.53C120.261 16.0967 121.157 16.9013 121.814 17.944C122.471 18.964 122.8 20.1427 122.8 21.48C122.8 21.9107 122.777 22.398 122.732 22.942L122.664 23.622H112.43C112.43 25.7753 112.759 27.3507 113.416 28.348C114.073 29.3227 114.991 29.81 116.17 29.81C117.258 29.81 118.165 29.572 118.89 29.096C119.638 28.5973 120.352 27.8947 121.032 26.988L122.086 27.77C121.429 28.79 120.601 29.64 119.604 30.32C118.629 31 117.315 31.34 115.66 31.34ZM118.21 22.092C118.21 19.9613 117.961 18.454 117.462 17.57C116.963 16.6633 116.249 16.21 115.32 16.21C114.459 16.21 113.756 16.6747 113.212 17.604C112.691 18.5107 112.43 20.0067 112.43 22.092H118.21ZM126.3 18.93C125.688 17.6607 125.166 16.7767 124.736 16.278C124.305 15.7567 123.818 15.4733 123.274 15.428V14.748L124.532 14.68C126.05 14.68 127.32 14.9747 128.34 15.564C129.382 16.1533 130.289 17.2753 131.06 18.93L134.052 25.458L138.676 15.02H140.512L133.27 31.34H132.046L126.3 18.93Z" fill="#DC780B"/>
<path d="M13.0552 42.1191L15.3647 37.1885H16.0039L13.2808 43H12.8296L10.1118 37.1885H10.751L13.0552 42.1191ZM10.5522 37.1885V43H9.91309V37.1885H10.5522ZM15.5151 43V37.1885H16.1597V43H15.5151ZM21.1335 37.1885V43H20.4944V37.1885H21.1335ZM20.3816 35.5073C20.3816 35.3856 20.4192 35.2835 20.4944 35.2012C20.5731 35.1152 20.6806 35.0723 20.8166 35.0723C20.9527 35.0723 21.0601 35.1152 21.1389 35.2012C21.2212 35.2835 21.2624 35.3856 21.2624 35.5073C21.2624 35.6255 21.2212 35.7275 21.1389 35.8135C21.0601 35.8958 20.9527 35.937 20.8166 35.937C20.6806 35.937 20.5731 35.8958 20.4944 35.8135C20.4192 35.7275 20.3816 35.6255 20.3816 35.5073ZM27.5629 42.5542C27.8351 42.5542 28.0893 42.5041 28.3256 42.4038C28.5655 42.3 28.7625 42.1478 28.9164 41.9473C29.074 41.7432 29.1635 41.4943 29.185 41.2007H29.7973C29.7794 41.5695 29.6666 41.8989 29.4589 42.189C29.2548 42.4754 28.9863 42.701 28.6533 42.8657C28.3238 43.0269 27.9604 43.1074 27.5629 43.1074C27.1583 43.1074 26.8002 43.034 26.4887 42.8872C26.1808 42.7404 25.923 42.5363 25.7153 42.2749C25.5076 42.0099 25.35 41.702 25.2426 41.3511C25.1388 40.9966 25.0869 40.6152 25.0869 40.207V39.9814C25.0869 39.5732 25.1388 39.1937 25.2426 38.8428C25.35 38.4883 25.5076 38.1803 25.7153 37.9189C25.923 37.654 26.1808 37.4481 26.4887 37.3013C26.7967 37.1545 27.1529 37.0811 27.5576 37.0811C27.9729 37.0811 28.3453 37.1652 28.6747 37.3335C29.0078 37.5018 29.2727 37.7399 29.4697 38.0479C29.6702 38.3558 29.7794 38.721 29.7973 39.1436H29.185C29.1671 38.832 29.0847 38.5635 28.9379 38.3379C28.7911 38.1123 28.5978 37.9386 28.3579 37.8169C28.1179 37.6951 27.8512 37.6343 27.5576 37.6343C27.2281 37.6343 26.947 37.6987 26.7143 37.8276C26.4815 37.953 26.2918 38.1266 26.145 38.3486C26.0017 38.5671 25.8961 38.8177 25.8281 39.1006C25.76 39.3799 25.726 39.6735 25.726 39.9814V40.207C25.726 40.5186 25.7582 40.8158 25.8227 41.0986C25.8907 41.3779 25.9964 41.6268 26.1396 41.8452C26.2864 42.0636 26.4762 42.2373 26.7089 42.3662C26.9453 42.4915 27.2299 42.5542 27.5629 42.5542ZM33.6647 43V37.1885H34.3039V42.4468H37.4406V37.1885H38.0851V43H33.6647ZM38.6706 42.4468L38.6222 44.7241H38.0368V43H37.3493V42.4468H38.6706ZM44.6703 43.1074C44.2907 43.1074 43.9416 43.0376 43.6229 42.8979C43.3078 42.7583 43.0321 42.5614 42.7958 42.3071C42.563 42.0529 42.3822 41.7521 42.2533 41.4048C42.128 41.0539 42.0653 40.6707 42.0653 40.2554V40.0244C42.0653 39.5768 42.1316 39.1722 42.264 38.8105C42.3965 38.4489 42.5791 38.1392 42.8119 37.8813C43.0446 37.6235 43.3096 37.4266 43.6068 37.2905C43.9076 37.1509 44.2227 37.0811 44.5521 37.0811C44.9209 37.0811 45.2486 37.1473 45.535 37.2798C45.8215 37.4087 46.0614 37.5931 46.2548 37.833C46.4517 38.0693 46.6003 38.3504 46.7006 38.6763C46.8008 38.9985 46.851 39.3548 46.851 39.7451V40.1372H42.452V39.5894H46.2118V39.5142C46.2046 39.1883 46.1384 38.884 46.0131 38.6011C45.8913 38.3146 45.7087 38.0819 45.4652 37.9028C45.2217 37.7238 44.9174 37.6343 44.5521 37.6343C44.28 37.6343 44.0293 37.6916 43.8002 37.8062C43.5746 37.9207 43.3794 38.0854 43.2147 38.3003C43.0536 38.5116 42.9283 38.764 42.8387 39.0576C42.7528 39.3477 42.7098 39.6699 42.7098 40.0244V40.2554C42.7098 40.5776 42.7564 40.8784 42.8495 41.1577C42.9462 41.4334 43.0822 41.6769 43.2577 41.8882C43.4367 42.0994 43.648 42.2642 43.8915 42.3823C44.135 42.5005 44.4035 42.5596 44.6971 42.5596C45.0409 42.5596 45.3453 42.4969 45.6102 42.3716C45.8752 42.2427 46.1133 42.0404 46.3246 41.7646L46.7274 42.0762C46.6021 42.2624 46.4445 42.4342 46.2548 42.5918C46.0686 42.7493 45.8448 42.8747 45.5834 42.9678C45.322 43.0609 45.0176 43.1074 44.6703 43.1074ZM57.9158 37.1885V43H57.2767V37.1885H57.9158ZM60.0321 37.1885V37.7363H55.2357V37.1885H60.0321ZM66.1929 40.3198H64.1519L64.1412 39.7827H65.8814C66.2323 39.7827 66.5241 39.7451 66.7569 39.6699C66.9932 39.5911 67.1704 39.4748 67.2886 39.3208C67.4104 39.1668 67.4712 38.9771 67.4712 38.7515C67.4712 38.5796 67.4354 38.4292 67.3638 38.3003C67.2958 38.1714 67.1919 38.0658 67.0523 37.9834C66.9162 37.901 66.7443 37.8402 66.5367 37.8008C66.3326 37.7578 66.0944 37.7363 65.8223 37.7363H64.3345V43H63.6954V37.1885H65.8223C66.1768 37.1885 66.4937 37.2207 66.773 37.2852C67.0559 37.346 67.2976 37.4391 67.4981 37.5645C67.6986 37.6898 67.8508 37.8509 67.9546 38.0479C68.062 38.2412 68.1158 38.4704 68.1158 38.7354C68.1158 38.9144 68.0817 39.0827 68.0137 39.2402C67.9457 39.3942 67.8454 39.5339 67.7129 39.6592C67.584 39.7809 67.4247 39.8812 67.2349 39.96C67.0451 40.0352 66.8267 40.0817 66.5796 40.0996L66.1929 40.3198ZM66.1929 43H63.9532L64.2002 42.4521H66.1929C66.5152 42.4521 66.7891 42.411 67.0147 42.3286C67.2403 42.2463 67.4104 42.1245 67.5249 41.9634C67.6431 41.8022 67.7022 41.6071 67.7022 41.3779C67.7022 41.1631 67.6431 40.9769 67.5249 40.8193C67.4104 40.6618 67.2403 40.54 67.0147 40.4541C66.7891 40.3646 66.5152 40.3198 66.1929 40.3198H64.7105L64.7212 39.7827H66.628L66.9019 39.9868C67.1955 40.0119 67.4497 40.0907 67.6646 40.2231C67.8794 40.3556 68.0459 40.5239 68.1641 40.728C68.2823 40.9285 68.3413 41.1488 68.3413 41.3887C68.3413 41.6536 68.2912 41.8882 68.191 42.0923C68.0907 42.2928 67.9457 42.4611 67.7559 42.5972C67.5697 42.7297 67.3441 42.8299 67.0791 42.8979C66.8142 42.966 66.5188 43 66.1929 43ZM71.9563 40.1855V40.0083C71.9563 39.5858 72.0172 39.1955 72.1389 38.8374C72.2607 38.4793 72.4343 38.1696 72.6599 37.9082C72.8891 37.6468 73.163 37.4445 73.4817 37.3013C73.8004 37.1545 74.1549 37.0811 74.5452 37.0811C74.9391 37.0811 75.2953 37.1545 75.614 37.3013C75.9327 37.4445 76.2066 37.6468 76.4358 37.9082C76.665 38.1696 76.8404 38.4793 76.9622 38.8374C77.0839 39.1955 77.1448 39.5858 77.1448 40.0083V40.1855C77.1448 40.6081 77.0839 40.9984 76.9622 41.3564C76.8404 41.7109 76.665 42.0189 76.4358 42.2803C76.2102 42.5417 75.9381 42.7458 75.6194 42.8926C75.3007 43.0358 74.9462 43.1074 74.5559 43.1074C74.162 43.1074 73.8058 43.0358 73.4871 42.8926C73.1684 42.7458 72.8945 42.5417 72.6653 42.2803C72.4361 42.0189 72.2607 41.7109 72.1389 41.3564C72.0172 40.9984 71.9563 40.6081 71.9563 40.1855ZM72.5955 40.0083V40.1855C72.5955 40.5042 72.6384 40.8068 72.7244 41.0933C72.8103 41.3761 72.9356 41.6286 73.1003 41.8506C73.2651 42.069 73.4692 42.2409 73.7127 42.3662C73.9561 42.4915 74.2372 42.5542 74.5559 42.5542C74.871 42.5542 75.1485 42.4915 75.3884 42.3662C75.6319 42.2409 75.836 42.069 76.0007 41.8506C76.1655 41.6286 76.289 41.3761 76.3713 41.0933C76.4573 40.8068 76.5003 40.5042 76.5003 40.1855V40.0083C76.5003 39.6932 76.4573 39.3942 76.3713 39.1113C76.289 38.8285 76.1637 38.576 75.9954 38.354C75.8307 38.132 75.6266 37.9565 75.3831 37.8276C75.1396 37.6987 74.8603 37.6343 74.5452 37.6343C74.2301 37.6343 73.9508 37.6987 73.7073 37.8276C73.4674 37.9565 73.2633 38.132 73.095 38.354C72.9303 38.576 72.8049 38.8285 72.719 39.1113C72.6366 39.3942 72.5955 39.6932 72.5955 40.0083ZM84.0361 39.8149V40.3682H80.9638V39.8149H84.0361ZM83.2197 42.5542C83.4918 42.5542 83.7461 42.5041 83.9824 42.4038C84.2223 42.3 84.4192 42.1478 84.5732 41.9473C84.7308 41.7432 84.8203 41.4943 84.8418 41.2007H85.4541C85.4362 41.5695 85.3234 41.8989 85.1157 42.189C84.908 42.4754 84.6395 42.701 84.31 42.8657C83.9806 43.0269 83.6172 43.1074 83.2197 43.1074C82.8151 43.1074 82.457 43.034 82.1455 42.8872C81.8375 42.7404 81.5797 42.5363 81.372 42.2749C81.1644 42.0099 81.0068 41.702 80.8994 41.3511C80.7956 40.9966 80.7436 40.6152 80.7436 40.207V39.9814C80.7436 39.5732 80.7956 39.1937 80.8994 38.8428C81.0068 38.4883 81.1644 38.1803 81.372 37.9189C81.5797 37.654 81.8375 37.4481 82.1455 37.3013C82.4534 37.1545 82.8097 37.0811 83.2143 37.0811C83.6297 37.0811 84.0021 37.1652 84.3315 37.3335C84.6609 37.5018 84.9259 37.7399 85.1264 38.0479C85.327 38.3558 85.4362 38.721 85.4541 39.1436H84.8418C84.8239 38.832 84.7415 38.5635 84.5947 38.3379C84.4479 38.1123 84.2545 37.9386 84.0146 37.8169C83.7747 37.6951 83.508 37.6343 83.2143 37.6343C82.8849 37.6343 82.602 37.6987 82.3657 37.8276C82.133 37.953 81.9432 38.1266 81.7964 38.3486C81.6531 38.5671 81.5475 38.8177 81.4795 39.1006C81.415 39.3799 81.3828 39.6735 81.3828 39.9814V40.207C81.3828 40.5186 81.415 40.8158 81.4795 41.0986C81.5475 41.3779 81.6531 41.6268 81.7964 41.8452C81.9432 42.0636 82.133 42.2373 82.3657 42.3662C82.602 42.4915 82.8867 42.5542 83.2197 42.5542ZM90.1272 37.1885V43H89.488V37.1885H90.1272ZM88.215 35.5718C88.215 35.45 88.2544 35.348 88.3332 35.2656C88.412 35.1797 88.5194 35.1367 88.6555 35.1367C88.7915 35.1367 88.899 35.1797 88.9777 35.2656C89.0565 35.348 89.0959 35.45 89.0959 35.5718C89.0959 35.6899 89.0565 35.7902 88.9777 35.8726C88.899 35.9549 88.7915 35.9961 88.6555 35.9961C88.5194 35.9961 88.412 35.9549 88.3332 35.8726C88.2544 35.7902 88.215 35.6899 88.215 35.5718ZM90.5676 35.5771C90.5676 35.4554 90.6052 35.3516 90.6804 35.2656C90.7592 35.1797 90.8684 35.1367 91.008 35.1367C91.1441 35.1367 91.2515 35.1797 91.3303 35.2656C91.4091 35.3516 91.4484 35.4554 91.4484 35.5771C91.4484 35.6953 91.4091 35.7956 91.3303 35.8779C91.2515 35.9603 91.1441 36.0015 91.008 36.0015C90.8684 36.0015 90.7592 35.9603 90.6804 35.8779C90.6052 35.7956 90.5676 35.6953 90.5676 35.5771ZM102.83 42.1191L105.14 37.1885H105.779L103.056 43H102.605L99.8869 37.1885H100.526L102.83 42.1191ZM100.327 37.1885V43H99.6881V37.1885H100.327ZM105.29 43V37.1885H105.935V43H105.29ZM110.828 38.3057V45.2344H110.183V37.1885H110.785L110.828 38.3057ZM114.867 40.0405V40.1533C114.867 40.5866 114.817 40.984 114.717 41.3457C114.616 41.7074 114.471 42.0207 114.282 42.2856C114.095 42.547 113.864 42.7493 113.589 42.8926C113.313 43.0358 113 43.1074 112.649 43.1074C112.301 43.1074 111.992 43.0537 111.72 42.9463C111.447 42.8389 111.213 42.6867 111.016 42.4897C110.823 42.2892 110.667 42.0565 110.549 41.7915C110.434 41.5229 110.354 41.2293 110.307 40.9106V39.4229C110.361 39.0719 110.448 38.7533 110.57 38.4668C110.692 38.1803 110.848 37.9333 111.037 37.7256C111.231 37.5179 111.46 37.3586 111.725 37.2476C111.99 37.1366 112.293 37.0811 112.633 37.0811C112.987 37.0811 113.302 37.1509 113.578 37.2905C113.857 37.4266 114.092 37.6253 114.282 37.8867C114.475 38.1445 114.62 38.4561 114.717 38.8213C114.817 39.1829 114.867 39.5894 114.867 40.0405ZM114.223 40.1533V40.0405C114.223 39.7004 114.187 39.3853 114.115 39.0952C114.047 38.8052 113.941 38.5527 113.798 38.3379C113.659 38.1195 113.48 37.9494 113.261 37.8276C113.046 37.7059 112.79 37.645 112.493 37.645C112.185 37.645 111.922 37.6969 111.703 37.8008C111.489 37.901 111.31 38.0353 111.166 38.2036C111.023 38.3683 110.91 38.5492 110.828 38.7461C110.746 38.943 110.685 39.1364 110.645 39.3262V41.0396C110.713 41.3117 110.823 41.5641 110.973 41.7969C111.123 42.026 111.324 42.2104 111.575 42.3501C111.829 42.4862 112.139 42.5542 112.504 42.5542C112.797 42.5542 113.052 42.4933 113.266 42.3716C113.481 42.2498 113.659 42.0798 113.798 41.8613C113.941 41.6429 114.047 41.3887 114.115 41.0986C114.187 40.8086 114.223 40.4935 114.223 40.1533ZM119.54 37.1885V43H118.901V37.1885H119.54ZM118.788 35.5073C118.788 35.3856 118.826 35.2835 118.901 35.2012C118.98 35.1152 119.087 35.0723 119.223 35.0723C119.359 35.0723 119.467 35.1152 119.545 35.2012C119.628 35.2835 119.669 35.3856 119.669 35.5073C119.669 35.6255 119.628 35.7275 119.545 35.8135C119.467 35.8958 119.359 35.937 119.223 35.937C119.087 35.937 118.98 35.8958 118.901 35.8135C118.826 35.7275 118.788 35.6255 118.788 35.5073ZM124.53 37.1885V43H123.891V37.1885H124.53ZM122.618 35.5718C122.618 35.45 122.657 35.348 122.736 35.2656C122.815 35.1797 122.922 35.1367 123.058 35.1367C123.194 35.1367 123.302 35.1797 123.381 35.2656C123.459 35.348 123.499 35.45 123.499 35.5718C123.499 35.6899 123.459 35.7902 123.381 35.8726C123.302 35.9549 123.194 35.9961 123.058 35.9961C122.922 35.9961 122.815 35.9549 122.736 35.8726C122.657 35.7902 122.618 35.6899 122.618 35.5718ZM124.971 35.5771C124.971 35.4554 125.008 35.3516 125.083 35.2656C125.162 35.1797 125.271 35.1367 125.411 35.1367C125.547 35.1367 125.654 35.1797 125.733 35.2656C125.812 35.3516 125.851 35.4554 125.851 35.5771C125.851 35.6953 125.812 35.7956 125.733 35.8779C125.654 35.9603 125.547 36.0015 125.411 36.0015C125.271 36.0015 125.162 35.9603 125.083 35.8779C125.008 35.7956 124.971 35.6953 124.971 35.5771Z" fill="#383639"/>
</svg>
